<?xml version="1.0" standalone="no"?>
<!DOCTYPE svg PUBLIC "-//W3C//DTD SVG 20010904//EN"
 "http://www.w3.org/TR/2001/REC-SVG-20010904/DTD/svg10.dtd">
<svg version="1.0" xmlns="http://www.w3.org/2000/svg"
 width="615.000000pt" height="372.000000pt" viewBox="0 0 615.000000 372.000000"
 preserveAspectRatio="xMidYMid meet">

<g transform="translate(0.000000,372.000000) scale(0.100000,-0.100000)"
fill="#000000" stroke="none">
<path d="M3609 2873 c-2 -31 3 -528 6 -531 2 -2 209 -6 459 -9 l456 -6 0 276
0 277 -460 0 c-253 0 -460 -3 -461 -7z"/>
<path d="M835 2790 l-200 -5 -7 -255 c-3 -140 -3 -258 0 -262 4 -4 77 -9 162
-11 182 -5 220 -12 220 -38 0 -17 -8 -19 -77 -20 -63 0 -73 -2 -53 -10 16 -7
86 -8 200 -2 114 5 150 9 103 11 -63 2 -73 5 -73 21 0 33 68 44 224 36 110 -5
145 -4 158 7 15 12 17 42 20 273 l3 260 -240 0 c-132 0 -330 -2 -440 -5z"/>
<path d="M4989 2613 c-1 -85 -4 -128 -9 -113 -6 17 -9 -3 -10 -65 -2 -49 -5
-80 -7 -67 -4 20 -10 22 -59 22 l-54 0 0 -75 0 -75 56 0 c75 0 84 -11 83 -102
-1 -55 -3 -65 -9 -43 l-8 30 -1 -31 c-1 -21 5 -34 15 -38 9 -3 124 -6 257 -6
133 0 273 -3 311 -7 l68 -6 -6 -36 c-3 -20 -9 -94 -13 -165 l-6 -129 -281 7
c-155 3 -397 9 -538 13 -175 4 -258 3 -258 -4 0 -6 12 -19 27 -29 33 -21 175
-30 588 -38 149 -3 285 -8 303 -12 l32 -6 0 -99 c0 -55 -4 -99 -9 -99 -12 0
-18 21 -26 85 -13 101 -14 105 -41 100 -13 -3 -34 -7 -47 -10 -22 -4 -22 -5
-24 -212 -1 -139 1 -196 7 -173 5 19 8 83 8 143 -1 77 2 111 12 120 10 10 12
9 7 -5 -4 -11 -1 -16 6 -13 49 15 65 14 70 -3 2 -9 8 -25 12 -34 6 -15 2 -18
-24 -18 l-31 0 0 -60 c0 -52 3 -61 25 -76 24 -16 25 -20 25 -130 0 -84 -3
-114 -12 -115 -38 -3 -84 4 -90 14 -4 7 -8 28 -8 47 0 20 -4 30 -8 23 -4 -7
-7 -27 -7 -45 1 -18 2 -58 3 -88 l2 -55 92 -1 c61 0 93 -4 96 -12 2 -7 13 -12
23 -12 29 0 59 -18 59 -35 0 -9 15 -24 33 -35 36 -23 83 -24 360 -13 l167 6 0
32 c0 20 -8 39 -21 51 -58 53 -63 113 -14 160 l35 33 -1 263 c-1 145 -5 274
-9 288 -5 14 -8 -67 -9 -190 -1 -267 -8 -350 -29 -350 -13 0 -14 72 -8 644 l7
643 -211 8 c-115 4 -212 10 -214 14 -2 3 -51 6 -108 6 l-103 0 -3 -52 c-2 -41
-7 -53 -23 -58 -17 -6 -19 -16 -19 -124 l0 -118 -205 -13 c-113 -7 -208 -10
-211 -7 -3 2 -5 158 -5 346 1 188 -1 341 -4 341 -3 0 -5 -62 -6 -137z m930
-249 c27 -34 26 -46 -5 -83 -19 -23 -22 -31 -11 -31 8 0 27 -14 41 -31 26 -31
33 -31 18 -1 -5 10 -4 26 3 39 9 18 12 -51 12 -322 0 -190 -3 -345 -7 -345 -5
0 -15 3 -24 6 -14 5 -13 9 4 31 29 38 24 50 -5 14 -32 -37 -58 -46 -94 -31
-35 14 -61 58 -61 103 0 47 41 97 79 97 15 0 36 7 47 15 18 14 17 15 -8 4 -85
-37 -159 102 -93 174 14 15 30 27 35 27 17 0 11 18 -8 24 -27 9 -52 59 -52
104 0 41 18 70 57 91 l22 11 -25 25 c-27 27 -29 37 -13 68 24 45 58 49 88 11z
m-283 -29 c0 -36 -18 -44 -24 -11 -3 13 13 46 22 46 1 0 2 -16 2 -35z m9 -124
c3 -5 1 -12 -5 -16 -16 -10 -12 -65 5 -65 9 0 12 -6 9 -15 -8 -20 -40 -19 -48
1 -15 40 -3 104 19 104 8 0 16 -4 20 -9z m-297 -518 c-15 -2 -42 -2 -60 0 -18
2 -6 4 27 4 33 0 48 -2 33 -4z m592 -179 c0 -2 -13 -4 -30 -4 -16 0 -30 4 -30
8 0 5 14 7 30 4 17 -2 30 -6 30 -8z m-295 -154 c15 -16 17 -26 9 -48 -13 -37
-48 -41 -70 -7 -34 52 19 101 61 55z m13 -144 c15 -8 35 -22 44 -32 21 -24 41
-74 28 -74 -5 0 -14 15 -21 33 -20 55 -101 84 -146 52 -13 -9 -24 -11 -28 -6
-7 13 43 40 73 41 13 0 35 -6 50 -14z m-142 -77 c-9 -20 -15 -27 -16 -16 0 20
19 61 26 54 2 -2 -2 -19 -10 -38z m153 3 c26 -28 12 -45 -15 -18 -34 35 -70 6
-60 -47 4 -21 1 -40 -7 -51 -13 -18 -15 -18 -30 5 -32 45 -17 121 26 139 30
12 58 3 86 -28z m199 -79 c60 -45 70 -117 23 -164 -25 -24 -38 -29 -78 -29
-98 0 -165 86 -128 165 33 67 114 80 183 28z m95 10 c-7 -2 -21 -2 -30 0 -10
3 -4 5 12 5 17 0 24 -2 18 -5z m54 1 c-3 -3 -12 -4 -19 -1 -8 3 -5 6 6 6 11 1
17 -2 13 -5z m11 -50 c42 -29 17 -82 -33 -70 -29 7 -44 49 -25 71 16 19 30 19
58 -1z"/>
<path d="M5858 2368 c-17 -13 -21 -28 -19 -60 1 -22 46 -34 66 -18 22 18 19
67 -4 80 -24 13 -24 13 -43 -2z m47 -43 c0 -25 -4 -30 -25 -30 -16 0 -26 6
-28 18 -6 30 6 49 30 45 18 -2 23 -9 23 -33z"/>
<path d="M5876 2343 c-12 -12 -6 -33 9 -33 8 0 15 6 15 14 0 17 -14 28 -24 19z"/>
<path d="M5844 2229 c-51 -25 -57 -97 -14 -141 25 -24 36 -29 58 -24 39 10 62
42 62 86 0 63 -55 104 -106 79z m81 -42 c21 -30 19 -52 -9 -84 -21 -24 -27
-26 -52 -18 -33 12 -50 50 -40 89 12 47 72 54 101 13z"/>
<path d="M5864 2165 c-9 -23 3 -45 25 -45 10 0 21 7 25 15 8 23 -4 45 -25 45
-11 0 -22 -7 -25 -15z"/>
<path d="M5952 2089 c-7 -11 -27 -28 -45 -39 -19 -12 -25 -20 -16 -20 9 0 29
-9 45 -21 l29 -21 -27 25 -26 24 31 31 c17 17 29 34 26 36 -3 3 -10 -4 -17
-15z"/>
<path d="M5821 1984 c-45 -58 -6 -144 65 -144 30 0 64 47 64 88 0 75 -85 112
-129 56z m107 -27 c14 -30 9 -58 -14 -82 -52 -52 -126 43 -77 97 25 28 74 20
91 -15z"/>
<path d="M5864 1945 c-9 -23 3 -45 25 -45 23 0 35 28 20 46 -15 18 -38 18 -45
-1z"/>
<path d="M5952 1870 c-18 -29 -15 -38 4 -12 9 13 14 25 12 27 -2 2 -9 -5 -16
-15z"/>
<path d="M5822 1767 c-30 -32 -29 -86 3 -121 47 -51 125 -18 125 53 0 80 -78
121 -128 68z m91 -14 c25 -29 26 -73 1 -97 -52 -52 -127 41 -77 96 20 23 55
23 76 1z"/>
<path d="M5867 1733 c-12 -11 -8 -40 7 -52 11 -9 18 -8 30 4 19 20 20 27 4 43
-13 13 -31 16 -41 5z"/>
<path d="M5940 1784 c0 -5 7 -18 15 -28 8 -11 15 -16 15 -10 0 5 -7 18 -15 28
-8 11 -15 16 -15 10z"/>
<path d="M5950 1610 c0 -5 5 -10 10 -10 6 0 10 5 10 10 0 6 -4 10 -10 10 -5 0
-10 -4 -10 -10z"/>
<path d="M5587 1348 c-7 -20 11 -58 27 -58 22 0 36 32 25 53 -12 20 -45 23
-52 5z m43 -12 c0 -3 -4 -8 -10 -11 -5 -3 -10 -1 -10 4 0 6 5 11 10 11 6 0 10
-2 10 -4z"/>
<path d="M5744 1070 c-29 -11 -54 -49 -54 -79 0 -39 40 -90 82 -102 132 -41
180 124 52 177 -38 16 -50 16 -80 4z m107 -49 c36 -36 37 -64 3 -98 -20 -20
-31 -24 -57 -19 -44 9 -77 43 -77 79 0 69 77 91 131 38z"/>
<path d="M5753 984 c-8 -21 30 -59 51 -51 23 9 31 34 16 52 -16 20 -59 19 -67
-1z"/>
<path d="M5976 1011 c-8 -12 2 -38 18 -44 20 -8 38 8 34 29 -3 20 -42 32 -52
15z m34 -21 c0 -5 -4 -10 -10 -10 -5 0 -10 5 -10 10 0 6 5 10 10 10 6 0 10 -4
10 -10z"/>
<path d="M2850 2675 c0 -40 2 -45 23 -45 21 1 22 1 3 15 -12 9 -15 15 -7 15 8
0 11 6 7 16 -4 9 -1 23 5 30 9 11 7 14 -10 14 -18 0 -21 -6 -21 -45z"/>
<path d="M2905 2709 c-4 -6 -4 -13 -1 -16 3 -4 6 -1 6 5 0 19 18 14 23 -5 4
-16 5 -16 6 1 1 12 6 16 16 12 8 -3 22 -9 30 -12 10 -4 15 0 15 10 0 12 -10
16 -44 16 -25 0 -48 -5 -51 -11z"/>
<path d="M2966 2674 c-3 -8 1 -14 9 -14 20 0 28 17 11 23 -8 3 -17 -1 -20 -9z"/>
<path d="M2920 2660 c0 -5 9 -14 19 -19 16 -9 18 -8 14 9 -5 20 -33 29 -33 10z"/>
<path d="M2533 2653 c-10 -3 -13 -57 -13 -219 0 -118 -4 -214 -8 -214 -5 0
-17 9 -27 20 -11 12 -32 21 -54 21 -25 1 -29 3 -11 6 14 2 40 6 59 9 l34 5 -6
176 c-4 131 -9 178 -19 184 -7 5 -50 9 -95 9 l-83 0 0 -57 0 -58 -70 3 -70 4
0 -41 c0 -45 -7 -42 103 -45 l37 -1 0 -92 0 -93 -94 0 c-52 0 -106 -4 -120
-10 -14 -5 -26 -6 -26 -2 0 4 -86 8 -190 9 l-190 1 -28 -29 c-32 -35 -69 -41
-52 -9 15 28 -1 24 -23 -5 l-18 -25 66 0 c37 0 65 4 65 10 0 6 -7 10 -16 10
-14 0 -14 3 -4 15 19 23 40 18 40 -10 l0 -25 180 0 c178 0 181 0 190 23 l9 22
0 -22 c1 -22 4 -23 116 -23 96 0 115 -3 115 -15 0 -9 9 -15 24 -15 23 0 24 -1
13 -42 -13 -53 -14 -66 -18 -235 l-3 -138 -6 195 -5 195 -442 3 c-284 1 -443
6 -443 12 0 6 -24 10 -54 10 l-54 0 -7 -38 c-3 -21 -6 -71 -7 -111 l0 -74
-242 7 c-132 4 -273 7 -312 7 -39 0 -84 4 -100 9 -26 7 -24 8 19 9 49 1 68 21
20 21 -22 0 -25 2 -13 10 8 5 11 10 5 11 -5 0 1 5 15 9 25 8 24 8 -5 9 -37 2
-57 14 -55 32 5 33 -1 48 -23 52 -15 3 -11 5 13 6 58 2 13 21 -52 21 l-57 0
-7 46 c-4 26 -4 84 -1 130 l5 84 -154 0 -154 0 -1 -367 c-1 -203 -5 -431 -9
-508 -5 -85 -7 59 -4 368 l4 507 -110 0 -110 0 0 -109 0 -109 29 29 c55 55
148 30 167 -45 24 -99 -95 -168 -167 -97 l-29 29 0 -68 0 -68 29 29 c42 42 92
40 137 -5 92 -92 -35 -225 -135 -140 l-31 26 0 -67 0 -66 23 26 c14 17 36 28
63 32 33 4 45 1 72 -22 75 -63 35 -174 -62 -175 -30 0 -47 7 -68 27 l-28 27 0
-282 0 -282 44 0 c74 0 142 -75 129 -143 -11 -59 -98 -97 -154 -67 -17 10 -19
7 -19 -25 l0 -36 103 7 c63 5 106 12 112 20 7 9 59 15 171 20 110 4 166 11
179 20 18 14 18 14 1 27 -37 27 -14 40 62 38 72 -2 72 -2 72 24 l0 27 83 -6
c116 -9 614 -36 660 -36 l37 0 0 -60 0 -60 -42 0 c-24 0 -140 6 -258 14 -118
8 -275 18 -348 22 -102 5 -132 10 -132 20 0 8 -9 14 -19 14 -37 0 -30 -16 17
-37 42 -19 89 -24 409 -43 303 -18 365 -19 386 -8 39 21 95 74 99 94 3 18 19
19 385 15 l382 -4 -6 22 c-5 19 -1 21 33 21 l39 -1 -25 -15 c-17 -11 -19 -13
-5 -9 80 26 128 33 151 25 25 -10 80 -13 57 -3 -24 9 -13 25 15 22 29 -3 52 6
52 22 0 5 -7 9 -15 9 -12 0 -15 17 -15 93 0 52 -3 210 -7 352 l-6 258 368 -6
c203 -4 369 -8 371 -9 1 -2 5 -35 9 -74 8 -87 -3 -104 -73 -105 -88 -1 -12
-18 86 -18 l92 -1 -1 233 c-1 127 -4 279 -8 337 l-6 105 -45 0 -45 0 -3 -222
-2 -223 -370 0 -370 0 -2 173 c-2 94 -2 197 -1 227 3 62 -4 70 -59 70 -34 0
-38 3 -38 25 0 20 5 25 25 25 l25 0 -2 192 c-3 200 -5 208 -45 191z m-2403
-273 c11 -8 8 -9 -13 -4 -56 13 -91 -58 -45 -90 12 -9 18 -16 14 -16 -19 0
-46 34 -46 56 0 26 35 64 59 64 9 0 23 -5 31 -10z m27 -50 l2 -25 -8 25 c-8
23 -9 23 -10 4 -2 -43 -52 -58 -74 -22 -17 27 9 50 52 46 30 -3 36 -8 38 -28z
m298 -5 c0 -27 -3 -30 -30 -30 -21 0 -31 5 -33 18 -6 33 6 49 35 45 24 -3 28
-8 28 -33z m-315 -40 c-7 -8 -17 -15 -23 -15 -6 0 -2 7 9 15 25 19 30 19 14 0z
m330 -51 c15 -9 17 -12 5 -8 -11 4 -33 8 -50 8 -16 0 -39 -4 -50 -8 -12 -4
-10 -1 5 8 14 8 34 15 45 15 11 0 31 -7 45 -15z m1400 0 c0 -12 -3 -14 -13 -6
-7 6 -35 12 -62 15 -48 3 -48 3 13 5 51 2 62 -1 62 -14z m190 -5 c0 -5 -7 -9
-15 -9 -15 0 -20 12 -9 23 8 8 24 -1 24 -14z m175 10 c10 -15 -2 -23 -22 -14
-10 5 -24 9 -31 11 -30 6 -23 14 11 14 20 0 39 -5 42 -11z m169 -5 c4 -11 0
-15 -16 -12 -12 2 -23 9 -26 16 -6 18 35 15 42 -4z m60 1 c3 -10 -1 -15 -13
-15 -10 0 -21 7 -25 15 -3 10 1 15 13 15 10 0 21 -7 25 -15z m-2114 -44 c-31
-60 9 -131 75 -131 61 0 100 62 77 124 -10 28 -10 29 3 12 19 -25 19 -59 0
-96 -31 -60 -107 -70 -149 -19 -28 33 -36 95 -14 117 17 17 20 15 8 -7z m120
-1 c26 -26 25 -51 -1 -84 -53 -67 -143 11 -93 82 19 28 67 29 94 2z m1950 -30
c0 -5 -2 -10 -4 -10 -3 0 -8 5 -11 10 -3 6 -1 10 4 10 6 0 11 -4 11 -10z
m-971 -77 c-1 -53 -6 -49 -11 10 -2 20 0 37 4 37 4 0 8 -21 7 -47z m132 17
c39 -21 13 -75 -33 -68 -30 4 -38 46 -12 65 21 16 20 16 45 3z m127 -2 c16
-16 15 -58 0 -60 -37 -4 -44 -3 -55 5 -17 13 -16 32 3 51 19 19 36 20 52 4z
m256 -10 c14 -23 -2 -50 -32 -54 -31 -5 -46 26 -26 55 18 25 42 24 58 -1z
m101 2 c17 -19 17 -21 0 -40 -11 -12 -28 -20 -39 -18 -28 4 -34 47 -10 65 24
17 28 17 49 -7z m100 0 c17 -19 17 -21 1 -39 -9 -10 -27 -18 -39 -17 -29 1
-36 44 -11 63 24 17 28 17 49 -7z m109 -38 c-7 -10 -24 -17 -40 -17 -24 0 -30
5 -32 28 -3 21 2 29 20 36 32 12 68 -21 52 -47z m257 -14 c-2 -75 -11 -73 -11
2 0 35 3 60 7 57 3 -4 5 -30 4 -59z m-2137 -28 c-47 -19 -73 -105 -41 -140 10
-12 9 -12 -5 -1 -29 22 -24 89 9 123 15 15 34 28 42 27 11 0 9 -3 -5 -9z m80
1 c4 -5 -3 -7 -14 -4 -23 6 -26 13 -6 13 8 0 17 -4 20 -9z m1824 -18 c30 -5
32 -8 32 -44 0 -35 -3 -39 -25 -39 -16 0 -25 6 -25 15 0 8 -4 15 -10 15 -5 0
-10 -7 -10 -15 0 -13 -52 -15 -405 -15 l-405 0 0 38 c0 21 3 42 7 46 8 8 790
7 841 -1z m-1829 -29 c26 -33 26 -45 0 -78 -26 -33 -71 -35 -93 -4 -22 31 -20
64 4 88 28 28 64 25 89 -6z m48 -46 c-3 -7 -5 -2 -5 12 0 14 2 19 5 13 2 -7 2
-19 0 -25z m391 -14 c14 -9 32 -12 45 -8 21 7 21 7 2 15 -11 4 69 8 178 8
l197 1 0 -244 c0 -134 -3 -256 -6 -272 l-5 -29 -89 3 -88 3 29 57 c15 31 31
80 34 107 5 51 2 52 -9 3 -4 -16 -13 -28 -20 -28 -8 0 -17 -7 -20 -16 -3 -8
-14 -14 -24 -12 -11 2 -26 -3 -34 -10 -14 -11 -14 -9 -2 25 16 45 18 115 4
164 -13 47 -72 115 -122 140 -49 25 -133 27 -182 4 -48 -23 -95 -86 -110 -147
-5 -23 -3 -28 13 -28 23 0 37 -35 22 -54 -7 -9 -6 -19 5 -34 8 -12 13 -22 10
-22 -3 0 2 -8 12 -18 9 -10 36 -39 59 -66 23 -26 59 -57 80 -68 l38 -20 -43 6
c-124 18 -212 121 -212 247 0 53 45 197 68 220 9 9 44 31 77 48 63 32 60 39
-7 19 -22 -6 -62 -32 -89 -56 l-49 -44 0 67 0 67 108 -7 c66 -4 116 -12 130
-21z m-407 -31 c-12 -20 -14 -14 -5 12 4 9 9 14 11 11 3 -2 0 -13 -6 -23z
m-111 -33 c8 -5 11 -10 5 -10 -5 0 -17 5 -25 10 -8 5 -10 10 -5 10 6 0 17 -5
25 -10z m80 0 c-8 -5 -19 -10 -25 -10 -5 0 -3 5 5 10 8 5 20 10 25 10 6 0 3
-5 -5 -10z m320 -60 c-26 -37 -40 -46 -40 -26 0 16 38 56 53 56 4 0 -1 -13
-13 -30z m-326 14 c9 -3 16 -11 16 -17 0 -7 -4 -7 -12 1 -15 15 -63 16 -90 1
-30 -16 -50 -72 -38 -105 6 -15 9 -29 6 -31 -8 -9 -24 55 -19 81 10 53 84 90
137 70z m-4 -44 c20 -20 26 -65 12 -86 -4 -6 -18 -17 -31 -24 -20 -10 -27 -9
-50 7 -38 29 -40 74 -5 102 33 26 49 26 74 1z m50 -15 c0 -5 -5 -3 -10 5 -5 8
-10 20 -10 25 0 6 5 3 10 -5 5 -8 10 -19 10 -25z m575 -59 c22 -53 18 -107
-11 -162 -29 -54 -44 -74 -44 -57 0 8 -17 10 -53 6 -39 -4 -62 -1 -86 11 -63
33 -98 131 -65 181 18 27 19 27 105 23 l88 -5 7 31 c3 17 9 35 11 39 6 11 29
-22 48 -67z m1262 -38 c-2 -18 -4 -4 -4 32 0 36 2 50 4 33 2 -18 2 -48 0 -65z
m-1846 15 c-12 -20 -14 -14 -5 12 4 9 9 14 11 11 3 -2 0 -13 -6 -23z m-116
-41 c-3 -3 -11 0 -18 7 -9 10 -8 11 6 5 10 -3 15 -9 12 -12z m48 -9 c-7 -2
-19 -2 -25 0 -7 3 -2 5 12 5 14 0 19 -2 13 -5z m1928 -410 c-7 -83 -8 -61 -8
142 0 238 0 239 8 98 5 -80 5 -186 0 -240z m246 265 c-3 -8 -6 -5 -6 6 -1 11
2 17 5 13 3 -3 4 -12 1 -19z m-1557 -32 c0 -2 -8 -10 -17 -17 -16 -13 -17 -12
-4 4 13 16 21 21 21 13z m1377 -78 c-3 -7 -5 -2 -5 12 0 14 2 19 5 13 2 -7 2
-19 0 -25z m-1983 -23 c9 -9 12 -23 9 -33 -6 -14 -8 -13 -13 8 -7 29 -37 34
-54 8 -14 -24 4 -53 32 -52 12 0 19 -3 16 -8 -8 -12 -38 -10 -52 4 -17 17 -15
54 4 72 20 20 38 20 58 1z m1896 -140 l0 -155 -102 0 c-57 0 -126 3 -155 6
l-51 7 10 29 c6 15 8 44 6 63 -4 32 -2 35 22 36 23 2 23 2 2 6 -29 6 -40 29
-50 102 l-9 61 164 0 163 0 0 -155z m-1573 79 c-3 -3 -12 -4 -19 -1 -8 3 -5 6
6 6 11 1 17 -2 13 -5z m351 -61 l372 -17 0 -33 c0 -33 0 -33 -47 -33 -74 0
-716 31 -730 35 -7 3 -13 18 -13 35 0 36 -49 35 418 13z m-670 -24 c30 -10 69
-55 58 -67 -3 -3 -6 0 -6 6 0 17 -60 52 -87 52 -12 0 -38 -7 -56 -16 -28 -13
-38 -27 -52 -68 -16 -47 -16 -54 -1 -90 18 -43 16 -55 -4 -31 -7 9 -15 37 -18
64 -7 72 31 132 94 151 39 11 37 11 72 -1z m15 -68 c29 -28 32 -81 7 -114 -45
-57 -105 -55 -135 3 -20 38 -13 80 18 107 40 36 75 37 110 4z m310 -18 c-7 -2
-21 -2 -30 0 -10 3 -4 5 12 5 17 0 24 -2 18 -5z m-13 -53 c0 -5 -2 -10 -4 -10
-3 0 -8 5 -11 10 -3 6 -1 10 4 10 6 0 11 -4 11 -10z m1550 -29 c25 -5 41 -10
35 -11 -18 -4 -328 2 -455 10 -108 6 -91 7 125 8 138 0 270 -3 295 -7z m-1912
-92 l37 -7 -33 -1 c-37 -1 -72 14 -72 31 0 7 6 6 16 -2 8 -8 32 -17 52 -21z
m76 16 c-10 -8 -23 -15 -28 -15 -6 0 -1 7 10 15 10 8 23 15 28 15 6 0 1 -7
-10 -15z"/>
<path d="M84 2339 c-10 -17 13 -36 27 -22 12 12 4 33 -11 33 -5 0 -12 -5 -16
-11z"/>
<path d="M403 2328 c2 -7 10 -13 17 -13 7 0 15 6 18 13 2 7 -5 12 -18 12 -13
0 -20 -5 -17 -12z"/>
<path d="M397 2173 c-4 -3 -7 -17 -7 -30 0 -18 6 -23 24 -23 13 0 27 7 30 16
11 28 -27 57 -47 37z"/>
<path d="M391 1942 c-11 -21 3 -52 24 -52 21 0 35 32 24 53 -13 22 -36 22 -48
-1z"/>
<path d="M1034 1878 c46 -31 92 -76 118 -117 15 -25 28 -41 28 -35 0 28 -91
129 -135 150 -16 8 -21 9 -11 2z"/>
<path d="M389 1724 c-16 -20 0 -49 27 -49 35 0 28 64 -7 65 -4 0 -12 -7 -20
-16z"/>
<path d="M820 1180 c0 -5 5 -10 10 -10 6 0 10 5 10 10 0 6 -4 10 -10 10 -5 0
-10 -4 -10 -10z"/>
<path d="M870 1180 c0 -5 5 -10 10 -10 6 0 10 5 10 10 0 6 -4 10 -10 10 -5 0
-10 -4 -10 -10z"/>
<path d="M1265 1170 c-4 -6 -3 -16 3 -22 6 -6 12 -6 17 2 4 6 3 16 -3 22 -6 6
-12 6 -17 -2z"/>
<path d="M1322 1158 c6 -18 28 -21 28 -4 0 9 -7 16 -16 16 -9 0 -14 -5 -12
-12z"/>
<path d="M1385 1161 c-7 -12 12 -24 25 -16 11 7 4 25 -10 25 -5 0 -11 -4 -15
-9z"/>
<path d="M360 1070 c-20 -38 8 -78 46 -63 21 8 34 44 22 66 -12 24 -55 22 -68
-3z"/>
<path d="M2983 2653 c-18 -7 -16 -23 2 -23 8 0 15 7 15 15 0 8 -1 15 -2 14 -2
0 -9 -3 -15 -6z"/>
<path d="M1600 2470 l0 -160 260 0 261 0 -3 158 -3 157 -257 3 -258 2 0 -160z
m107 134 c-3 -3 -12 -4 -19 -1 -8 3 -5 6 6 6 11 1 17 -2 13 -5z"/>
<path d="M5282 2395 l-1 -35 64 0 65 0 0 35 0 35 -63 0 -64 0 -1 -35z m70 -5
c-12 -12 -22 -16 -22 -10 0 19 4 25 17 22 7 -2 13 3 13 9 0 7 3 9 7 6 3 -4 -3
-16 -15 -27z"/>
<path d="M2254 2392 c4 -7 2 -19 -4 -27 -9 -11 -9 -15 -1 -15 18 0 25 30 11
43 -10 9 -11 9 -6 -1z"/>
<path d="M3380 2317 c0 -31 4 -57 10 -57 5 0 7 22 3 53 -8 71 -13 72 -13 4z"/>
<path d="M3590 2295 c0 -12 31 -15 203 -17 l202 -3 3 -30 c5 -40 -18 -55 -77
-49 -25 3 -57 1 -71 -5 -18 -7 44 -10 223 -10 150 -1 247 3 247 9 0 5 -26 10
-57 12 -56 3 -57 4 -64 35 -3 18 -4 35 -1 38 3 3 86 5 184 5 139 0 179 3 176
13 -4 9 -112 13 -486 15 -421 2 -482 0 -482 -13z"/>
<path d="M43 2216 c-22 -19 -28 -32 -28 -66 0 -82 88 -119 146 -61 39 40 39
82 0 122 -37 36 -79 38 -118 5z m110 -28 c9 -11 17 -29 17 -40 0 -25 -44 -68
-70 -68 -21 0 -70 41 -70 59 0 26 22 62 42 71 30 11 59 3 81 -22z"/>
<path d="M74 2165 c-9 -23 3 -45 25 -45 20 0 37 32 26 50 -9 15 -45 12 -51 -5z"/>
<path d="M3556 2183 c12 -2 24 -13 27 -24 5 -18 2 -20 -19 -15 -22 6 -24 3
-23 -26 1 -31 2 -31 8 -8 7 22 8 19 12 -18 3 -32 1 -41 -8 -38 -10 4 -13 -66
-13 -350 0 -343 1 -356 19 -361 29 -7 32 -26 19 -110 -10 -67 -9 -77 6 -85 10
-6 16 -22 16 -43 0 -26 4 -35 16 -35 12 0 15 7 12 25 -5 25 -5 25 72 25 l78 0
4 -57 c4 -74 -5 -83 -93 -83 l-69 0 0 -28 0 -29 136 5 c132 5 136 4 162 -20
47 -43 80 -52 182 -49 125 3 734 31 737 34 1 2 -33 18 -77 37 -43 19 -76 37
-74 39 2 3 32 4 67 3 34 0 54 2 43 5 -17 4 -16 6 5 17 13 7 23 18 21 24 -1 7
6 12 15 13 10 0 -4 7 -32 14 l-50 13 50 2 c28 1 66 1 86 0 26 -1 36 3 36 14 0
11 -4 13 -12 6 -7 -5 -15 -7 -18 -3 -4 3 11 25 33 49 94 102 77 289 -36 382
-33 27 -42 30 -152 36 -72 4 -118 3 -120 -2 -2 -6 -20 -8 -42 -5 -31 4 -39 2
-43 -13 -3 -11 -5 -3 -4 16 l2 35 60 6 60 5 -60 5 c-52 3 -60 6 -58 24 2 20
-12 35 -34 35 -9 0 -13 -21 -13 -70 l0 -70 -64 0 -64 0 5 58 c3 31 0 73 -6 92
-10 33 -10 33 -6 -15 7 -67 -5 -109 -33 -113 -12 -2 -29 -16 -37 -32 -24 -46
-36 -45 -15 2 11 24 19 52 19 63 -1 11 -5 5 -11 -15 -13 -46 -27 -62 -52 -58
-12 1 -28 -2 -36 -7 -12 -8 -12 -5 1 16 12 17 18 56 21 129 3 58 7 111 9 119
2 8 -15 26 -44 44 -38 24 -59 30 -105 30 -33 0 -72 -7 -92 -16 -25 -12 -28
-15 -10 -12 23 5 22 4 -5 -11 -47 -26 -104 -85 -114 -118 -21 -68 -16 -145 12
-187 18 -28 20 -39 12 -67 -5 -18 -14 -31 -19 -29 -5 2 -25 26 -43 53 -59 89
-65 94 -44 35 18 -47 19 -70 14 -190 -4 -81 -10 -139 -17 -143 -6 -4 -41 -8
-77 -8 l-66 0 -7 391 c-4 215 -6 392 -4 394 2 1 199 5 438 9 239 3 436 6 438
6 1 0 2 7 2 16 0 14 -37 15 -382 8 -211 -5 -408 -9 -438 -9 l-55 0 -3 114 c-2
85 1 117 10 123 8 4 -8 7 -37 6 -27 0 -40 -3 -29 -5z m547 -445 c-3 -18 -7
-34 -7 -35 -1 -1 -9 13 -18 32 -15 35 -15 35 8 35 21 0 23 -3 17 -32z m69 -82
c21 -26 23 -87 3 -126 -36 -69 -150 -96 -214 -51 -42 30 -74 99 -65 138 14 58
13 58 140 59 108 0 120 -2 136 -20z m640 -293 c33 -39 29 -91 -10 -112 -24
-13 -65 -3 -58 14 2 7 -2 21 -9 32 -21 26 -18 50 7 67 29 21 51 20 70 -1z m33
7 c3 -5 1 -10 -4 -10 -6 0 -11 5 -11 10 0 6 2 10 4 10 3 0 8 -4 11 -10z"/>
<path d="M3948 1603 c6 -2 12 -9 12 -15 0 -6 8 -17 18 -24 11 -9 12 -13 4 -14
-8 0 -6 -8 8 -22 11 -12 23 -18 27 -14 4 4 1 11 -7 17 -12 7 -11 10 7 15 13 4
21 10 18 14 -6 10 22 33 42 36 26 4 27 14 1 14 -14 0 -39 -7 -57 -16 -30 -15
-34 -15 -50 0 -10 9 -22 16 -27 15 -5 0 -3 -3 4 -6z"/>
<path d="M4127 1604 c8 -4 9 -13 3 -29 -7 -18 -6 -23 7 -21 15 2 30 26 32 49
1 4 -11 7 -26 6 -16 0 -23 -3 -16 -5z"/>
<path d="M3921 1564 c0 -11 3 -14 6 -6 3 7 2 16 -1 19 -3 4 -6 -2 -5 -13z"/>
<path d="M5196 2149 c-10 -18 -27 -40 -37 -50 -19 -19 -18 -19 40 -19 33 0 62
4 65 8 6 10 -33 92 -43 92 -4 0 -15 -14 -25 -31z"/>
<path d="M4307 2112 c-93 -2 -108 -5 -103 -18 3 -9 6 -29 6 -45 l0 -29 116 0
117 0 -7 43 c-4 23 -10 44 -14 47 -4 3 -56 4 -115 2z m-17 -16 c0 -3 -4 -8
-10 -11 -5 -3 -10 -1 -10 4 0 6 5 11 10 11 6 0 10 -2 10 -4z m-43 -62 c-3 -3
-12 -4 -19 -1 -8 3 -5 6 6 6 11 1 17 -2 13 -5z"/>
<path d="M1045 2069 c-4 -22 -5 -42 -3 -44 1 -2 51 -7 109 -10 106 -8 106 -7
112 16 4 13 7 36 7 52 l0 27 -109 0 -109 0 -7 -41z m85 21 c0 -5 -5 -10 -11
-10 -5 0 -7 5 -4 10 3 6 8 10 11 10 2 0 4 -4 4 -10z m117 -6 c-3 -3 -12 -4
-19 -1 -8 3 -5 6 6 6 11 1 17 -2 13 -5z m-160 -30 c-3 -3 -12 -4 -19 -1 -8 3
-5 6 6 6 11 1 17 -2 13 -5z m160 0 c-3 -3 -12 -4 -19 -1 -8 3 -5 6 6 6 11 1
17 -2 13 -5z m-160 -20 c-3 -3 -12 -4 -19 -1 -8 3 -5 6 6 6 11 1 17 -2 13 -5z
m163 -2 c0 -5 -7 -9 -15 -9 -8 0 -15 4 -15 9 0 4 7 8 15 8 8 0 15 -4 15 -8z"/>
<path d="M867 2082 c-34 -37 -11 -92 38 -92 30 0 55 25 55 55 0 50 -60 73 -93
37z m67 -13 c8 -12 12 -28 9 -36 -4 -11 -8 -12 -13 -3 -6 9 -10 7 -18 -5 -11
-20 -39 -15 -48 9 -6 16 24 56 43 56 6 0 19 -10 27 -21z"/>
<path d="M4020 2080 c-34 -34 -20 -80 27 -95 17 -4 29 1 48 19 30 30 31 36 4
70 -24 31 -52 33 -79 6z m68 -12 c15 -15 15 -29 -2 -51 -12 -15 -18 -16 -40
-6 -29 13 -31 21 -16 50 12 21 40 25 58 7z"/>
<path d="M3691 2013 c0 -11 3 -13 6 -5 3 8 30 12 84 12 64 0 79 -3 79 -15 0
-12 -16 -15 -85 -15 -50 0 -85 -4 -85 -10 0 -6 38 -10 95 -10 l95 0 0 30 0 30
-95 0 c-84 0 -95 -2 -94 -17z"/>
<path d="M53 2001 c-20 -13 -34 -31 -38 -51 -18 -84 71 -142 138 -90 49 39 42
116 -14 145 -37 19 -48 19 -86 -4z m83 -19 c58 -39 16 -135 -52 -118 -50 13
-65 73 -28 111 16 16 61 20 80 7z"/>
<path d="M71 1946 c-16 -20 -3 -46 24 -46 25 0 38 21 29 45 -8 19 -38 19 -53
1z"/>
<path d="M4502 1781 l3 -44 75 4 c41 2 235 3 430 2 210 -2 347 1 335 6 -11 5
-88 10 -170 11 -83 1 -172 3 -200 5 -27 2 -110 4 -182 4 l-133 1 -6 25 c-5 21
-12 25 -48 26 -22 0 -56 1 -74 2 l-33 2 3 -44z"/>
<path d="M60 1782 c-39 -19 -56 -55 -46 -95 15 -60 85 -86 134 -51 56 39 47
124 -14 150 -41 17 -32 17 -74 -4z m85 -32 c39 -43 4 -115 -53 -108 -33 4 -66
49 -57 77 16 51 76 69 110 31z"/>
<path d="M66 1725 c-9 -24 4 -45 29 -45 25 0 38 21 29 45 -4 8 -16 15 -29 15
-13 0 -25 -7 -29 -15z"/>
<path d="M3791 1743 c-10 -26 -10 -27 4 -9 8 11 15 23 15 28 0 15 -7 8 -19
-19z"/>
<path d="M4310 1761 c0 -5 7 -15 17 -22 15 -13 15 -12 4 9 -12 23 -21 28 -21
13z"/>
<path d="M5393 1743 c15 -2 37 -2 50 0 12 2 0 4 -28 4 -27 0 -38 -2 -22 -4z"/>
<path d="M6131 1704 c0 -11 3 -14 6 -6 3 7 2 16 -1 19 -3 4 -6 -2 -5 -13z"/>
<path d="M3766 1695 c-9 -26 -7 -32 5 -12 6 10 9 21 6 23 -2 3 -7 -2 -11 -11z"/>
<path d="M4272 1680 c0 -8 4 -26 8 -40 6 -20 8 -21 8 -5 0 11 -3 29 -8 40 -5
12 -8 14 -8 5z"/>
<path d="M4550 1630 c0 -5 11 -9 25 -8 27 3 25 10 -5 15 -11 2 -20 -2 -20 -7z"/>
<path d="M3743 1585 c0 -22 2 -30 4 -17 2 12 2 30 0 40 -3 9 -5 -1 -4 -23z"/>
<path d="M4580 1560 c20 -13 33 -13 25 0 -3 6 -14 10 -23 10 -15 0 -15 -2 -2
-10z"/>
<path d="M3170 1380 l-35 -7 38 -2 c20 0 37 4 37 9 0 6 -1 9 -2 9 -2 -1 -19
-5 -38 -9z"/>
<path d="M2980 1246 c0 -51 58 -66 78 -21 16 36 17 35 -33 35 -32 0 -45 -4
-45 -14z"/>
<path d="M2736 1168 c-12 -16 -16 -46 -16 -106 l0 -83 83 1 c94 2 119 -1 129
-14 4 -6 65 -14 137 -20 72 -5 131 -13 131 -17 0 -5 -18 -13 -40 -19 -31 -8
-71 -6 -185 10 -80 11 -162 19 -182 19 -31 -2 -33 -3 -10 -6 30 -5 37 -23 10
-23 -10 -1 -3 -8 17 -17 28 -13 73 -16 223 -17 195 -1 214 3 200 42 -5 11 4
13 46 11 l51 -4 0 77 c0 82 11 124 37 143 16 12 -135 25 -489 40 -123 6 -127
5 -142 -17z"/>
<path d="M4995 1170 c-4 -12 -9 -19 -12 -16 -8 8 -34 -44 -27 -55 3 -5 -1 -9
-8 -9 -7 -1 1 -7 17 -15 22 -10 25 -14 11 -14 -15 -1 -16 -4 -6 -16 11 -13 8
-15 -21 -16 -23 -1 -27 -3 -12 -6 27 -5 39 -38 23 -58 -10 -13 -8 -15 14 -15
14 0 25 3 24 8 -1 4 2 56 6 115 8 105 5 141 -9 97z"/>
<path d="M5147 1145 c-3 -16 -9 -68 -13 -115 -3 -47 -11 -92 -17 -100 -9 -12
-9 -13 3 -2 8 6 22 12 32 12 34 0 38 89 9 205 l-8 30 -6 -30z"/>
<path d="M5028 1135 c-5 -23 -2 -25 33 -26 22 -1 45 -2 52 -3 6 -1 13 11 15
27 3 26 2 27 -46 27 -45 0 -50 -2 -54 -25z"/>
<path d="M7 1083 c-16 -15 -4 -23 33 -23 50 0 90 -35 90 -78 0 -52 -59 -79
-111 -52 -15 8 -19 7 -19 -4 0 -35 100 -37 135 -1 60 59 -5 165 -100 165 -12
0 -25 -3 -28 -7z"/>
<path d="M5060 1080 c0 -5 4 -10 9 -10 6 0 13 5 16 10 3 6 -1 10 -9 10 -9 0
-16 -4 -16 -10z"/>
<path d="M6121 1061 c-29 -29 -28 -82 4 -118 28 -32 32 -21 9 25 -14 29 -14
35 2 67 20 43 13 54 -15 26z"/>
<path d="M19 1004 c-17 -21 0 -48 33 -52 34 -4 44 22 18 48 -24 24 -34 25 -51
4z"/>
<path d="M1012 956 c1 -10 8 -17 13 -17 15 1 12 24 -3 29 -9 3 -13 -2 -10 -12z"/>
<path d="M1055 960 c-7 -12 2 -30 16 -30 12 0 12 27 0 35 -5 3 -12 1 -16 -5z"/>
<path d="M4858 963 c6 -2 18 -2 25 0 6 3 1 5 -13 5 -14 0 -19 -2 -12 -5z"/>
<path d="M740 950 c0 -5 5 -10 10 -10 6 0 10 5 10 10 0 6 -4 10 -10 10 -5 0
-10 -4 -10 -10z"/>
<path d="M1093 947 c2 -6 20 -12 41 -14 25 -1 36 2 33 10 -2 6 -20 12 -41 14
-25 1 -36 -2 -33 -10z"/>
<path d="M1360 941 c0 -5 8 -7 18 -4 28 7 49 -24 34 -48 -7 -11 -8 -19 -2 -19
26 0 31 56 6 72 -16 11 -56 10 -56 -1z"/>
<path d="M850 910 c0 -5 5 -10 10 -10 6 0 10 5 10 10 0 6 -4 10 -10 10 -5 0
-10 -4 -10 -10z"/>
<path d="M905 910 c-3 -5 1 -10 9 -10 9 0 16 5 16 10 0 6 -4 10 -9 10 -6 0
-13 -4 -16 -10z"/>
<path d="M960 905 c0 -8 5 -15 10 -15 6 0 10 7 10 15 0 8 -4 15 -10 15 -5 0
-10 -7 -10 -15z"/>
<path d="M1010 900 c0 -5 5 -10 10 -10 6 0 10 5 10 10 0 6 -4 10 -10 10 -5 0
-10 -4 -10 -10z"/>
<path d="M1050 900 c0 -5 9 -11 20 -11 11 -1 25 -2 32 -3 6 -1 13 5 16 12 2 8
-8 12 -32 12 -20 0 -36 -4 -36 -10z"/>
<path d="M1146 901 c-4 -7 -5 -15 -2 -18 9 -9 19 4 14 18 -4 11 -6 11 -12 0z"/>
<path d="M1180 896 c0 -16 30 -26 86 -26 47 0 59 7 43 27 -16 19 -129 18 -129
-1z"/>
<path d="M3588 893 c7 -3 16 -2 19 1 4 3 -2 6 -13 5 -11 0 -14 -3 -6 -6z"/>
<path d="M3538 883 c6 -2 18 -2 25 0 6 3 1 5 -13 5 -14 0 -19 -2 -12 -5z"/>
<path d="M3370 870 c-8 -5 -27 -7 -42 -5 -16 3 -28 1 -28 -5 0 -6 26 -10 60
-10 49 0 58 3 54 15 -7 17 -22 19 -44 5z"/>
<path d="M2848 863 c6 -2 18 -2 25 0 6 3 1 5 -13 5 -14 0 -19 -2 -12 -5z"/>
<path d="M3950 865 c0 -6 79 -46 110 -55 14 -4 187 1 385 11 198 10 364 18
370 19 5 0 5 4 -1 10 -10 10 -371 -4 -679 -25 -73 -5 -85 -3 -128 20 -49 26
-57 28 -57 20z"/>
<path d="M2943 853 c9 -2 23 -2 30 0 6 3 -1 5 -18 5 -16 0 -22 -2 -12 -5z"/>
</g>
</svg>
